<svg width="48" height="48" viewBox="0 0 48 48" fill="none" xmlns="http://www.w3.org/2000/svg">
<g clip-path="url(#clip0_10:129)">
<path d="M10.532 19.53C11.4677 16.6989 13.2737 14.2356 15.6922 12.4916C18.1107 10.7476 21.0182 9.81188 24 9.818C27.38 9.818 30.436 11.018 32.836 12.982L39.82 6C35.564 2.29 30.11 0 24 0C14.54 0 6.39598 5.396 2.47998 13.3L10.532 19.53Z" fill="#EA4335"/>
<path d="M32.08 36.026C29.9 37.432 27.132 38.182 24 38.182C21.0301 38.1881 18.1336 37.2599 15.7205 35.5287C13.3073 33.7976 11.4999 31.3512 10.554 28.536L2.474 34.67C4.45649 38.6826 7.52453 42.0588 11.3296 44.4151C15.1348 46.7714 19.5244 48.0134 24 48C29.866 48 35.47 45.914 39.668 42L32.082 36.026H32.08Z" fill="#34A853"/>
<path d="M39.668 42C44.058 37.904 46.908 31.808 46.908 24C46.908 22.58 46.69 21.054 46.364 19.636H24V28.91H36.872C36.238 32.028 34.532 34.442 32.082 36.026L39.668 42Z" fill="#4A90E2"/>
<path d="M10.554 28.536C10.0647 27.0738 9.81613 25.5419 9.81799 24C9.81799 22.436 10.068 20.934 10.532 19.53L2.47999 13.3C0.832745 16.6254 -0.016404 20.289 -1.12315e-05 24C-1.12315e-05 27.84 0.889989 31.46 2.47399 34.67L10.554 28.536Z" fill="#FBBC05"/>
</g>
<defs>
<clipPath id="clip0_10:129">
<rect width="48" height="48" fill="white"/>
</clipPath>
</defs>
</svg>
