<svg width="650" height="544" viewBox="0 0 650 544" fill="none" xmlns="http://www.w3.org/2000/svg">
<g clip-path="url(#clip0_6:48)">
<path d="M524.364 530.548L86.6666 133.273L155.111 0L636.358 527.285L524.364 530.548Z" fill="#6C63FF"/>
<path d="M325 112.409C339.625 112.409 351.481 100.553 351.481 85.9276C351.481 71.3023 339.625 59.4461 325 59.4461C310.375 59.4461 298.519 71.3023 298.519 85.9276C298.519 100.553 310.375 112.409 325 112.409Z" fill="#6C63FF"/>
<path d="M441.358 149.323C446.233 149.323 450.185 145.371 450.185 140.495C450.185 135.62 446.233 131.668 441.358 131.668C436.483 131.668 432.531 135.62 432.531 140.495C432.531 145.371 436.483 149.323 441.358 149.323Z" fill="#3F3D56"/>
<path d="M441.358 219.137C446.233 219.137 450.185 215.185 450.185 210.31C450.185 205.435 446.233 201.483 441.358 201.483C436.483 201.483 432.531 205.435 432.531 210.31C432.531 215.185 436.483 219.137 441.358 219.137Z" fill="#3F3D56"/>
<path d="M529.63 236.792C534.505 236.792 538.457 232.84 538.457 227.965C538.457 223.089 534.505 219.137 529.63 219.137C524.755 219.137 520.802 223.089 520.802 227.965C520.802 232.84 524.755 236.792 529.63 236.792Z" fill="#3F3D56"/>
<path d="M325 543.335C504.493 543.335 650 536.149 650 527.285C650 518.422 504.493 511.236 325 511.236C145.507 511.236 0 518.422 0 527.285C0 536.149 145.507 543.335 325 543.335Z" fill="#6C63FF"/>
<path d="M515.118 266.608C511.432 260.528 498.556 260.685 498.556 260.685C486.832 278.103 458.652 259.601 458.652 259.601C437.722 268.965 424.952 239.124 424.952 239.124C396.789 234.913 401.14 205.335 401.14 205.335C387.128 202.522 391.06 177.189 391.06 177.189C391.06 177.189 398.834 170.813 395.008 166.148C392.576 163.182 392.425 154.671 392.637 148.861C374.353 143.3 355.346 140.481 336.235 140.495C229.426 140.495 142.84 227.081 142.84 333.89C142.84 440.699 229.426 527.285 336.235 527.285C443.044 527.285 529.63 440.699 529.63 333.89C529.653 310.686 525.49 287.668 517.342 265.942C516.349 267.062 515.58 267.37 515.118 266.608Z" fill="#3F3D56"/>
<path opacity="0.1" d="M515.118 266.608C511.432 260.528 498.556 260.685 498.556 260.685C486.832 278.103 458.652 259.601 458.652 259.601C437.722 268.965 424.952 239.124 424.952 239.124C396.789 234.913 401.14 205.335 401.14 205.335C387.128 202.522 391.06 177.189 391.06 177.189C391.06 177.189 398.834 170.813 395.008 166.148C392.576 163.182 392.425 154.671 392.637 148.861C374.353 143.3 355.346 140.481 336.235 140.495C229.426 140.495 142.84 227.081 142.84 333.89C142.84 440.699 229.426 527.285 336.235 527.285C443.044 527.285 529.63 440.699 529.63 333.89C529.653 310.686 525.49 287.668 517.342 265.942C516.349 267.062 515.58 267.37 515.118 266.608Z" fill="black"/>
<path d="M503.657 265.844C500.151 260.062 487.905 260.211 487.905 260.211C476.756 276.777 449.955 259.18 449.955 259.18C430.049 268.086 417.904 239.706 417.904 239.706C391.12 235.701 395.258 207.571 395.258 207.571C381.932 204.896 385.671 180.803 385.671 180.803C385.671 180.803 393.065 174.738 389.427 170.302C387.113 167.482 386.97 159.387 387.172 153.861C369.782 148.573 351.705 145.892 333.53 145.905C231.949 145.905 149.602 228.253 149.602 329.833C149.602 431.414 231.949 513.761 333.53 513.761C435.111 513.761 517.458 431.414 517.458 329.833C517.48 307.765 513.521 285.874 505.772 265.211C504.828 266.276 504.096 266.569 503.657 265.844Z" fill="#3F3D56"/>
<path d="M311.568 254.637C311.568 254.637 279.851 234.453 249.575 254.637C238.979 261.701 233.68 271.768 231.27 281.87C226.984 299.831 231.684 318.767 243.146 333.245L311.638 419.761C313.987 422.775 317.136 425.068 320.727 426.376C324.317 427.684 328.203 427.956 331.94 427.16C332.088 427.126 332.237 427.092 332.388 427.056C335.094 426.39 337.636 425.177 339.855 423.491C342.075 421.806 343.927 419.683 345.295 417.255L392.929 333.606C401.741 318.373 405.353 300.684 403.219 283.215C400.985 266.013 392.724 247.879 369.236 241.661C369.236 241.661 341.844 230.128 311.568 254.637Z" fill="#6C63FF"/>
<path opacity="0.1" d="M311.568 254.637C311.568 254.637 279.851 234.453 249.575 254.637C238.979 261.701 233.68 271.768 231.27 281.87C226.984 299.831 231.684 318.767 243.146 333.245L311.638 419.761C313.987 422.775 317.136 425.068 320.727 426.376C324.317 427.684 328.203 427.956 331.94 427.16C332.088 427.126 332.237 427.092 332.388 427.056C335.094 426.39 337.636 425.177 339.855 423.491C342.075 421.806 343.927 419.683 345.295 417.255L392.929 333.606C401.741 318.373 405.353 300.684 403.219 283.215C400.985 266.013 392.724 247.879 369.236 241.661C369.236 241.661 341.844 230.128 311.568 254.637Z" fill="black"/>
<path d="M311.891 259.508C311.891 259.508 282.138 240.574 253.737 259.508C243.797 266.135 238.827 275.578 236.566 285.054C232.545 301.903 236.954 319.666 247.706 333.248L311.956 414.406C314.16 417.233 317.114 419.384 320.482 420.611C323.85 421.838 327.495 422.093 331.001 421.346C331.14 421.315 331.28 421.282 331.421 421.248C333.96 420.624 336.344 419.486 338.426 417.905C340.509 416.324 342.245 414.333 343.529 412.055L388.213 333.587C396.479 319.297 399.868 302.704 397.866 286.317C395.77 270.179 388.021 253.168 365.988 247.336C365.988 247.336 340.292 236.517 311.891 259.508Z" fill="#6C63FF"/>
<path opacity="0.1" d="M313.049 291.973C313.049 291.973 298.573 282.761 284.756 291.973C280.465 294.877 277.47 299.333 276.401 304.402C275.476 308.466 275.483 312.687 276.422 316.748C277.361 320.808 279.207 324.604 281.822 327.85C281.822 327.85 318.882 371.488 322.347 370.712C322.414 370.697 322.482 370.681 322.551 370.664C325.048 370.065 350.182 328.014 350.182 328.014C354.203 321.062 355.852 312.989 354.878 305.016C353.858 297.165 350.088 288.889 339.369 286.051C339.369 286.051 326.867 280.787 313.049 291.973Z" fill="black"/>
<path opacity="0.1" d="M222.632 360.938L226.689 367.701L234.803 381.225L237.508 390.692L232.099 398.806L238.861 415.035L241.566 424.502L236.156 429.912L246.975 438.026" fill="black"/>
<path opacity="0.1" d="M421.437 301.432V312.252L414.674 329.833L410.617 339.3L417.38 351.472L420.085 359.586L430.904 363.644L434.961 370.406V386.634" fill="black"/>
<path opacity="0.1" d="M490.41 312.252L479.59 319.014C479.59 319.014 474.181 321.719 474.181 323.071V333.891" fill="black"/>
<path opacity="0.1" d="M441.723 274.384L444.428 287.908L441.723 297.376" fill="black"/>
<path opacity="0.1" d="M452.542 396.102L444.428 408.273L434.961 416.388V421.797L440.37 428.559V436.674L436.313 444.789" fill="black"/>
<path opacity="0.1" d="M375.454 166.191H361.93L351.111 175.658L333.529 185.125L325.415 191.887V194.592L307.834 204.059L302.424 213.526" fill="black"/>
<path opacity="0.1" d="M229.394 189.182L217.222 213.526L213.165 222.993L203.698 235.164C203.698 235.164 196.936 247.336 195.584 248.688C194.231 250.041 184.764 252.746 184.764 252.746L198.288 266.27" fill="black"/>
<path opacity="0.1" d="M175.298 282.499L172.593 300.08L175.298 310.9V329.833L167.183 364.996L175.298 374.462L184.765 386.634" fill="black"/>
<path opacity="0.1" d="M195.583 290.613L203.698 294.671L209.107 312.252L219.927 309.547L225.337 319.014" fill="black"/>
<path opacity="0.1" d="M344.349 466.427L365.988 463.722L375.454 454.255H388.978" fill="black"/>
<path opacity="0.1" d="M213.165 438.026L221.279 447.493L234.803 451.55L244.271 454.255L246.975 469.132" fill="black"/>
<path opacity="0.1" d="M372.749 392.045L382.217 385.282L386.274 374.463L394.389 373.11L398.445 359.586" fill="black"/>
<path d="M129.87 52.2239H152.514C159.663 52.2239 166.52 55.064 171.575 60.1193C176.63 65.1747 179.471 72.0313 179.471 79.1807V128.782H102.913V79.1807C102.913 75.6407 103.61 72.1353 104.965 68.8648C106.319 65.5942 108.305 62.6225 110.808 60.1194C113.311 57.6162 116.283 55.6306 119.554 54.2759C122.824 52.9211 126.33 52.2239 129.87 52.2239Z" fill="#2F2E41"/>
<path d="M153.117 477.598C153.117 477.598 150.71 492.845 146.698 495.252C142.685 497.66 167.562 503.277 167.562 503.277L171.574 479.203L153.117 477.598Z" fill="#FBBEBE"/>
<path d="M182.809 303.462L191.636 313.894L187.624 350.005L184.414 421.425C184.414 421.425 190.833 483.215 184.414 484.82C177.994 486.425 149.105 485.623 149.908 481.61C150.71 477.598 151.513 474.388 153.117 468.771C154.722 463.153 151.513 443.092 151.513 443.092L155.525 420.623L141.08 323.524L182.809 303.462Z" fill="#2F2E41"/>
<path d="M153.92 492.845C153.92 492.845 145.093 491.24 144.29 492.845C143.488 494.45 128.241 511.301 125.833 511.301C123.426 511.301 105.772 527.351 124.229 528.153C142.685 528.956 173.179 514.511 173.179 514.511C173.179 514.511 168.692 494.091 168.929 495.073C169.167 496.055 153.92 496.857 153.92 492.845Z" fill="#2F2E41"/>
<path d="M144.29 455.931C144.29 455.931 166.759 480.808 167.562 483.215C168.364 485.623 180.401 483.215 180.401 483.215L185.216 467.166L181.204 461.548L158.735 443.092L144.29 455.931Z" fill="#FBBEBE"/>
<path d="M176.389 474.388L164.753 485.34C164.753 485.34 179.599 508.092 179.599 510.499C179.599 512.906 180.401 532.968 188.426 529.758C196.451 526.548 197.253 494.45 197.253 494.45C197.253 494.45 196.451 461.548 191.636 459.141C186.821 456.734 176.268 457.494 176.268 457.494C176.268 457.494 182.809 473.585 176.389 474.388Z" fill="#2F2E41"/>
<path d="M109.784 232.042C109.784 232.042 105.772 244.882 104.969 248.092C104.167 251.302 99.352 260.129 99.352 273.771C99.352 287.413 100.957 303.462 99.352 305.067C97.7471 306.672 72.068 396.549 83.3026 406.178C94.5372 415.808 131.451 447.907 133.858 451.919C136.266 455.931 137.068 465.561 141.883 463.956C146.698 462.351 165.154 446.302 165.957 443.092C166.759 439.882 155.525 434.265 155.525 434.265C155.525 434.265 133.056 401.363 127.438 402.166C121.821 402.968 122.624 398.153 123.426 395.746C124.229 393.339 125.833 391.734 123.426 391.734C121.019 391.734 122.624 385.314 123.426 382.104C124.229 378.894 142.685 335.561 142.685 335.561L191.636 313.894C191.636 313.894 189.229 255.314 171.574 239.265L167.562 229.635C167.562 229.635 122.624 226.425 109.784 232.042Z" fill="#2F2E41"/>
<path d="M129.846 105.252C129.846 105.252 133.858 133.339 124.228 134.944C114.599 136.549 106.574 135.746 106.574 136.549C106.574 137.351 130.648 162.228 130.648 162.228L153.117 160.623L173.179 138.956C173.179 138.956 154.722 135.746 154.722 124.512C154.722 113.277 153.92 105.252 153.92 105.252H129.846Z" fill="#FBBEBE"/>
<path opacity="0.1" d="M129.846 105.252C129.846 105.252 133.858 133.339 124.228 134.944C114.599 136.549 106.574 135.746 106.574 136.549C106.574 137.351 130.648 162.228 130.648 162.228L153.117 160.623L173.179 138.956C173.179 138.956 154.722 135.746 154.722 124.512C154.722 113.277 153.92 105.252 153.92 105.252H129.846Z" fill="black"/>
<path d="M142.284 116.888C156.023 116.888 167.161 105.751 167.161 92.0116C167.161 78.2726 156.023 67.135 142.284 67.135C128.545 67.135 117.408 78.2726 117.408 92.0116C117.408 105.751 128.545 116.888 142.284 116.888Z" fill="#FBBEBE"/>
<path d="M120.216 132.536C120.216 132.536 88.9199 136.549 86.5125 146.981C84.1051 157.413 102.562 222.413 104.969 228.03C107.377 233.647 106.574 237.66 106.574 237.66C110.205 234.944 114.376 233.038 118.805 232.069C123.235 231.1 127.82 231.091 132.253 232.042C147.5 235.252 169.167 233.647 169.167 233.647C169.167 233.647 176.389 203.956 177.994 200.746C179.599 197.536 186.019 179.882 186.019 175.067C186.019 170.252 195.648 150.191 195.648 150.191C195.648 150.191 190.833 135.746 173.179 136.549C173.179 136.549 165.479 133.102 163.31 135.628C161.142 138.154 149.105 149.388 133.858 144.573C118.611 139.758 120.216 132.536 120.216 132.536Z" fill="#FF6584"/>
<path d="M95.3396 146.178H86.5125L81.6977 209.573C81.6977 209.573 99.352 214.388 101.759 211.178C104.167 207.968 95.3396 146.178 95.3396 146.178Z" fill="#FF6584"/>
<path d="M180.401 146.178L195.648 150.191C195.648 150.191 206.883 191.116 207.685 191.919C208.488 192.721 209.29 197.536 209.29 197.536C209.29 197.536 209.29 198.339 210.895 200.746C212.5 203.153 214.908 201.549 213.303 204.758C211.698 207.968 209.29 206.363 210.895 209.573C212.5 212.783 211.698 221.61 211.698 221.61C211.698 221.61 207.685 206.363 193.241 210.376L183.611 167.042L180.401 146.178Z" fill="#FF6584"/>
<path d="M161.706 85.9613H123.053L114.302 65.8482H168.27L161.706 85.9613Z" fill="#2F2E41"/>
<path d="M117.982 100.678C119.015 100.379 119.205 97.9047 118.407 95.1514C117.609 92.3981 116.125 90.4087 115.093 90.7078C114.06 91.007 113.87 93.4815 114.668 96.2348C115.466 98.9881 116.95 100.978 117.982 100.678Z" fill="#FFB9B9"/>
<path d="M170.276 96.2349C171.074 93.4816 170.884 91.007 169.852 90.7079C168.819 90.4087 167.335 92.3981 166.538 95.1514C165.74 97.9047 165.93 100.379 166.962 100.678C167.995 100.978 169.479 98.9881 170.276 96.2349Z" fill="#FFB9B9"/>
<path d="M163.704 202.286C171.681 202.286 178.148 195.819 178.148 187.841C178.148 179.864 171.681 173.397 163.704 173.397C155.726 173.397 149.259 179.864 149.259 187.841C149.259 195.819 155.726 202.286 163.704 202.286Z" fill="#3F3D56"/>
<path opacity="0.1" d="M163.704 202.286C171.681 202.286 178.148 195.819 178.148 187.841C178.148 179.864 171.681 173.397 163.704 173.397C155.726 173.397 149.259 179.864 149.259 187.841C149.259 195.819 155.726 202.286 163.704 202.286Z" fill="black"/>
<path d="M163.704 200.853C170.89 200.853 176.716 195.027 176.716 187.841C176.716 180.655 170.89 174.829 163.704 174.829C156.517 174.829 150.692 180.655 150.692 187.841C150.692 195.027 156.517 200.853 163.704 200.853Z" fill="#3F3D56"/>
<path opacity="0.1" d="M163.13 180.486C163.13 180.486 159.815 178.376 156.65 180.486C155.667 181.151 154.981 182.171 154.737 183.332C154.525 184.263 154.526 185.229 154.741 186.16C154.956 187.09 155.379 187.959 155.978 188.702L163.137 197.745C163.383 198.06 163.712 198.3 164.087 198.437C164.462 198.573 164.869 198.602 165.259 198.519L165.306 198.508C165.589 198.438 165.855 198.311 166.087 198.135C166.319 197.959 166.512 197.737 166.655 197.483L171.634 188.74C172.555 187.148 172.933 185.299 172.71 183.473C172.658 182.465 172.286 181.499 171.647 180.718C171.008 179.936 170.136 179.38 169.158 179.129C169.158 179.129 166.294 177.924 163.13 180.486Z" fill="black"/>
<path d="M163.164 180.995C163.164 180.995 160.054 179.016 157.085 180.995C156.163 181.618 155.52 182.576 155.29 183.665C155.091 184.538 155.093 185.445 155.295 186.317C155.496 187.19 155.893 188.005 156.455 188.702L163.17 197.186C163.401 197.481 163.71 197.706 164.062 197.834C164.414 197.962 164.795 197.989 165.161 197.911L165.205 197.901C165.47 197.835 165.72 197.717 165.937 197.551C166.155 197.386 166.336 197.178 166.471 196.94L171.141 188.738C172.005 187.244 172.359 185.51 172.15 183.797C172.102 182.851 171.753 181.946 171.153 181.212C170.554 180.479 169.736 179.957 168.818 179.722C168.818 179.722 166.132 178.592 163.164 180.995Z" fill="#6C63FF"/>
<path opacity="0.1" d="M163.285 184.388C162.839 184.118 162.327 183.975 161.806 183.975C161.285 183.975 160.773 184.118 160.327 184.388C159.879 184.692 159.566 185.157 159.454 185.687C159.357 186.112 159.358 186.553 159.456 186.978C159.554 187.402 159.747 187.799 160.021 188.138C160.021 188.138 163.894 192.699 164.256 192.618L164.278 192.613C164.539 192.551 167.166 188.155 167.166 188.155C167.586 187.429 167.759 186.585 167.657 185.752C167.633 185.291 167.463 184.851 167.172 184.494C166.88 184.137 166.482 183.883 166.036 183.769C165.563 183.621 165.06 183.6 164.577 183.709C164.094 183.817 163.648 184.052 163.285 184.388Z" fill="black"/>
<path d="M150.864 210.31C158.842 210.31 165.309 203.843 165.309 195.866C165.309 187.888 158.842 181.421 150.864 181.421C142.887 181.421 136.42 187.888 136.42 195.866C136.42 203.843 142.887 210.31 150.864 210.31Z" fill="#3F3D56"/>
<path opacity="0.1" d="M150.864 210.31C158.842 210.31 165.309 203.843 165.309 195.866C165.309 187.888 158.842 181.421 150.864 181.421C142.887 181.421 136.42 187.888 136.42 195.866C136.42 203.843 142.887 210.31 150.864 210.31Z" fill="black"/>
<path d="M150.864 208.878C158.05 208.878 163.876 203.052 163.876 195.866C163.876 188.68 158.05 182.854 150.864 182.854C143.678 182.854 137.852 188.68 137.852 195.866C137.852 203.052 143.678 208.878 150.864 208.878Z" fill="#3F3D56"/>
<path opacity="0.1" d="M150.29 188.51C150.29 188.51 146.975 186.401 143.811 188.51C142.828 189.175 142.142 190.196 141.897 191.357C141.685 192.288 141.687 193.254 141.902 194.184C142.117 195.114 142.54 195.984 143.139 196.727L150.298 205.77C150.543 206.085 150.872 206.325 151.248 206.461C151.623 206.598 152.029 206.627 152.42 206.543L152.467 206.532C152.749 206.463 153.015 206.336 153.247 206.16C153.479 205.984 153.673 205.762 153.816 205.508L158.795 196.765C159.716 195.172 160.093 193.323 159.87 191.497C159.819 190.489 159.447 189.524 158.807 188.742C158.168 187.961 157.296 187.404 156.318 187.154C156.318 187.154 153.455 185.948 150.29 188.51Z" fill="black"/>
<path d="M150.324 189.019C150.324 189.019 147.214 187.04 144.246 189.019C143.324 189.643 142.68 190.601 142.451 191.69C142.252 192.563 142.253 193.47 142.455 194.342C142.657 195.214 143.053 196.03 143.615 196.727L150.331 205.21C150.561 205.506 150.87 205.731 151.222 205.859C151.574 205.987 151.955 206.014 152.322 205.936L152.366 205.925C152.631 205.86 152.88 205.741 153.098 205.576C153.315 205.411 153.497 205.203 153.631 204.965L158.302 196.763C159.166 195.269 159.52 193.534 159.311 191.822C159.263 190.876 158.913 189.97 158.314 189.237C157.714 188.504 156.896 187.982 155.979 187.747C155.979 187.747 153.293 186.616 150.324 189.019Z" fill="#6C63FF"/>
<path opacity="0.1" d="M150.445 192.413C149.999 192.143 149.488 192 148.966 192C148.445 192 147.934 192.143 147.488 192.413C147.039 192.716 146.726 193.182 146.614 193.712C146.518 194.137 146.519 194.578 146.617 195.002C146.715 195.427 146.908 195.824 147.181 196.163C147.181 196.163 151.055 200.724 151.417 200.643L151.438 200.638C151.699 200.575 154.326 196.18 154.326 196.18C154.747 195.453 154.919 194.61 154.817 193.776C154.794 193.316 154.624 192.875 154.332 192.519C154.041 192.162 153.643 191.908 153.196 191.794C152.724 191.646 152.221 191.625 151.737 191.733C151.254 191.842 150.809 192.077 150.445 192.413Z" fill="black"/>
<path d="M139.85 159.753C139.498 159.173 138.269 159.188 138.269 159.188C137.15 160.85 134.461 159.085 134.461 159.085C132.463 159.978 131.245 157.13 131.245 157.13C128.557 156.729 128.972 153.906 128.972 153.906C127.635 153.637 128.01 151.22 128.01 151.22C128.01 151.22 128.752 150.611 128.387 150.166C128.169 149.645 128.091 149.076 128.161 148.516C124.178 147.304 119.902 147.475 116.028 149.001C112.155 150.527 108.912 153.319 106.826 156.922C104.74 160.525 103.935 164.728 104.542 168.847C105.148 172.966 107.13 176.759 110.165 179.609C113.2 182.458 117.11 184.197 121.259 184.543C125.408 184.888 129.552 183.82 133.017 181.511C136.481 179.203 139.063 175.79 140.342 171.828C141.622 167.867 141.523 163.588 140.062 159.69C139.967 159.797 139.894 159.826 139.85 159.753Z" fill="#3F3D56"/>
<path opacity="0.1" d="M139.85 159.753C139.498 159.173 138.269 159.188 138.269 159.188C137.15 160.85 134.461 159.085 134.461 159.085C132.463 159.978 131.245 157.13 131.245 157.13C128.557 156.729 128.972 153.906 128.972 153.906C127.635 153.637 128.01 151.22 128.01 151.22C128.01 151.22 128.752 150.611 128.387 150.166C128.169 149.645 128.091 149.076 128.161 148.516C124.178 147.304 119.902 147.475 116.028 149.001C112.155 150.527 108.912 153.319 106.826 156.922C104.74 160.525 103.935 164.728 104.542 168.847C105.148 172.966 107.13 176.759 110.165 179.609C113.2 182.458 117.11 184.197 121.259 184.543C125.408 184.888 129.552 183.82 133.017 181.511C136.481 179.203 139.063 175.79 140.342 171.828C141.622 167.867 141.523 163.588 140.062 159.69C139.967 159.797 139.894 159.826 139.85 159.753Z" fill="black"/>
<path d="M138.756 159.68C138.421 159.129 137.253 159.143 137.253 159.143C136.189 160.724 133.631 159.044 133.631 159.044C131.731 159.894 130.572 157.186 130.572 157.186C128.016 156.804 128.411 154.119 128.411 154.119C127.139 153.864 127.496 151.564 127.496 151.564C127.496 151.564 128.201 150.986 127.854 150.562C127.647 150.067 127.573 149.526 127.639 148.993C123.851 147.84 119.784 148.003 116.101 149.454C112.417 150.906 109.332 153.561 107.349 156.988C105.365 160.415 104.6 164.412 105.176 168.329C105.753 172.247 107.637 175.854 110.524 178.564C113.411 181.274 117.129 182.928 121.075 183.256C125.021 183.585 128.962 182.569 132.257 180.374C135.553 178.178 138.008 174.933 139.225 171.165C140.441 167.397 140.347 163.328 138.958 159.62C138.868 159.722 138.798 159.75 138.756 159.68Z" fill="#3F3D56"/>
<path d="M120.424 158.611C120.424 158.611 117.397 156.685 114.507 158.611C113.61 159.218 112.984 160.15 112.76 161.21C112.567 162.06 112.568 162.942 112.765 163.791C112.961 164.641 113.347 165.434 113.894 166.113L120.43 174.37C120.655 174.657 120.955 174.876 121.298 175.001C121.64 175.126 122.011 175.152 122.368 175.076L122.411 175.066C122.669 175.002 122.912 174.886 123.123 174.726C123.335 174.565 123.512 174.362 123.643 174.13L128.188 166.147C129.029 164.694 129.374 163.005 129.171 161.338C129.124 160.418 128.784 159.536 128.2 158.823C127.617 158.109 126.82 157.601 125.927 157.373C125.927 157.373 123.313 156.272 120.424 158.611Z" fill="#6C63FF"/>
<path opacity="0.1" d="M120.424 158.611C120.424 158.611 117.397 156.685 114.507 158.611C113.61 159.218 112.984 160.15 112.76 161.21C112.567 162.06 112.568 162.942 112.765 163.791C112.961 164.641 113.347 165.434 113.894 166.113L120.43 174.37C120.655 174.657 120.955 174.876 121.298 175.001C121.64 175.126 122.011 175.152 122.368 175.076L122.411 175.066C122.669 175.002 122.912 174.886 123.123 174.726C123.335 174.565 123.512 174.362 123.643 174.13L128.188 166.147C129.029 164.694 129.374 163.005 129.171 161.338C129.124 160.418 128.784 159.536 128.2 158.823C127.617 158.109 126.82 157.601 125.927 157.373C125.927 157.373 123.313 156.272 120.424 158.611Z" fill="black"/>
<path d="M120.455 159.076C120.455 159.076 117.615 157.269 114.905 159.076C114.063 159.645 113.475 160.519 113.266 161.514C113.084 162.311 113.086 163.139 113.27 163.935C113.454 164.732 113.816 165.477 114.329 166.113L120.461 173.859C120.671 174.128 120.953 174.334 121.274 174.451C121.596 174.568 121.944 174.592 122.278 174.521L122.318 174.512C122.561 174.452 122.788 174.343 122.987 174.192C123.186 174.042 123.351 173.852 123.474 173.634L127.738 166.145C128.527 164.782 128.851 163.198 128.66 161.634C128.616 160.771 128.297 159.944 127.749 159.275C127.202 158.605 126.455 158.129 125.617 157.914C125.617 157.914 123.165 156.882 120.455 159.076Z" fill="#6C63FF"/>
<path opacity="0.1" d="M120.565 162.174C120.158 161.927 119.691 161.797 119.215 161.797C118.739 161.797 118.272 161.927 117.865 162.174C117.455 162.451 117.169 162.876 117.067 163.36C116.979 163.748 116.98 164.151 117.069 164.538C117.159 164.926 117.335 165.288 117.585 165.598C117.585 165.598 121.122 169.763 121.452 169.689L121.472 169.684C122.421 168.374 123.301 167.015 124.109 165.614C124.493 164.95 124.65 164.18 124.557 163.419C124.536 162.999 124.381 162.596 124.114 162.271C123.848 161.945 123.484 161.713 123.077 161.609C122.646 161.474 122.186 161.455 121.745 161.554C121.304 161.653 120.897 161.867 120.565 162.174Z" fill="black"/>
<path opacity="0.1" d="M111.936 168.756L112.323 169.401L113.098 170.692L113.356 171.595L112.839 172.37L113.485 173.918L113.743 174.822L113.227 175.339L114.26 176.113" fill="black"/>
<path opacity="0.1" d="M130.909 163.077V164.11L130.264 165.788L129.876 166.69L130.522 167.852L130.78 168.627L131.813 169.014L132.2 169.66V171.208" fill="black"/>
<path opacity="0.1" d="M137.492 164.109L136.459 164.755C136.459 164.755 135.943 165.013 135.943 165.142V166.174" fill="black"/>
<path opacity="0.1" d="M132.845 160.495L133.103 161.786L132.845 162.689" fill="black"/>
<path opacity="0.1" d="M133.877 172.112L133.103 173.273L132.2 174.047V174.564L132.716 175.209V175.984L132.329 176.758" fill="black"/>
<path opacity="0.1" d="M126.52 150.17H125.23L124.197 151.074L122.519 151.977L121.745 152.622V152.881L120.067 153.784L119.551 154.687" fill="black"/>
<path opacity="0.1" d="M112.581 152.364L111.42 154.687L111.033 155.591L110.129 156.752C110.129 156.752 109.484 157.914 109.355 158.043C109.025 158.208 108.679 158.337 108.322 158.43L109.613 159.721" fill="black"/>
<path opacity="0.1" d="M107.419 161.27L107.16 162.948L107.419 163.981V165.788L106.644 169.143L107.419 170.046L108.322 171.208" fill="black"/>
<path opacity="0.1" d="M109.355 162.044L110.129 162.432L110.645 164.11L111.678 163.851L112.194 164.755" fill="black"/>
<path opacity="0.1" d="M123.552 178.823L125.617 178.565L126.521 177.662H127.812" fill="black"/>
<path opacity="0.1" d="M111.033 176.113L111.807 177.017L113.098 177.403L114.001 177.662L114.26 179.081" fill="black"/>
<path opacity="0.1" d="M126.263 171.724L127.166 171.079L127.553 170.046L128.328 169.917L128.715 168.627" fill="black"/>
<path d="M84.1051 203.153L81.6977 209.573C81.6977 209.573 80.0927 230.438 89.7224 229.635C99.352 228.833 104.969 216.796 104.969 216.796C104.969 216.796 99.352 201.549 92.9322 203.153C86.5125 204.758 84.1051 203.153 84.1051 203.153Z" fill="#FF6584"/>
<path d="M92.1298 207.166C92.1298 207.166 87.315 221.61 92.9323 221.61C98.5496 221.61 108.982 212.783 109.784 205.561C110.587 198.339 125.031 171.055 114.599 173.462C104.167 175.87 99.352 195.931 99.352 195.931L92.1298 207.166Z" fill="#FBBEBE"/>
<path d="M206.883 207.968L211.896 216.346C211.896 216.346 214.105 232.042 202.871 232.042C191.636 232.042 175.587 216.795 175.587 216.795C175.587 216.795 167.562 213.586 162.747 214.388C157.932 215.191 131.451 214.388 142.685 200.746C153.92 187.104 173.179 200.746 173.179 200.746L193.241 210.376L203.673 204.758L206.883 207.968Z" fill="#FBBEBE"/>
<path d="M200.062 197.135L192.037 209.975C192.037 209.975 210.494 212.382 212.099 216.394C213.704 220.407 204.877 195.53 204.877 195.53L200.062 197.135Z" fill="#FF6584"/>
</g>
<defs>
<clipPath id="clip0_6:48">
<rect width="650" height="543.335" fill="white"/>
</clipPath>
</defs>
</svg>
